<svg xmlns="http://www.w3.org/2000/svg" viewBox="1068.375 3801.599 23.149 12.803">
  <defs>
    <style>
      .cls-1 {
        fill: #e5c045;
      }
    </style>
  </defs>
  <g id="Group_232" data-name="Group 232" transform="translate(1068.273 3802.343)">
    <path id="Path_423" data-name="Path 423" class="cls-1" d="M1.075.075a1.275,1.275,0,0,1,1.15,1.15l.9,12.9a.911.911,0,0,1-1,1,1.275,1.275,0,0,1-1.15-1.15l-.9-12.9A.911.911,0,0,1,1.075.075Z" transform="translate(0 1.414) rotate(-45)"/>
    <path id="Path_424" data-name="Path 424" class="cls-1" d="M1.075-.075a.911.911,0,0,1,1,1l-.9,12.9a1.275,1.275,0,0,1-1.15,1.15.911.911,0,0,1-1-1l.9-12.9A1.275,1.275,0,0,1,1.075-.075Z" transform="translate(21.728 0) rotate(45)"/>
  </g>
</svg>
