<svg xmlns="http://www.w3.org/2000/svg" viewBox="-3040 4190 60.947 60.947">
  <defs>
    <style>
      .cls-1 {
        fill: #fff;
      }

      .cls-2 {
        fill: #e5c045;
      }
    </style>
  </defs>
  <g id="Group_33" data-name="Group 33" transform="translate(-3040 4190)">
    <circle id="Ellipse_2" data-name="Ellipse 2" class="cls-1" cx="24.363" cy="24.363" r="24.363" transform="translate(6.497 5.379)"/>
    <g id="_002-phone-symbol-of-an-auricular-inside-a-circle" data-name="002-phone-symbol-of-an-auricular-inside-a-circle" transform="translate(0)">
      <path id="Path_2" data-name="Path 2" class="cls-2" d="M30.475,0A30.474,30.474,0,1,0,60.948,30.474,30.475,30.475,0,0,0,30.475,0ZM46.567,44.465l-2.44,2.44a4.5,4.5,0,0,1-1.752.706A28.78,28.78,0,0,1,13.333,18.5a4.542,4.542,0,0,1,.715-1.674l2.44-2.44a4.076,4.076,0,0,1,3.809-.9l.513.171A4.821,4.821,0,0,1,23.6,16.606l1.227,4.5a4.419,4.419,0,0,1-1.008,3.858L22.187,26.6A17.306,17.306,0,0,0,34.355,38.77l1.629-1.63a4.416,4.416,0,0,1,3.859-1.013l4.5,1.232a4.827,4.827,0,0,1,2.946,2.783l.171.521A4.081,4.081,0,0,1,46.567,44.465Z" transform="translate(-0.001)"/>
    </g>
  </g>
</svg>
