<svg xmlns="http://www.w3.org/2000/svg" viewBox="-840 4000 83.063 83.063">
  <defs>
    <style>
      .cls-1 {
        fill: #e5c045;
      }
    </style>
  </defs>
  <g id="Group_23" data-name="Group 23" transform="translate(-840 4000)">
    <path id="Path_8" data-name="Path 8" class="cls-1" d="M41.532,0A41.532,41.532,0,1,0,83.063,41.532,41.579,41.579,0,0,0,41.532,0ZM60.059,32.026c.018.412.028.826.028,1.241,0,12.632-9.613,27.193-27.2,27.193A27.039,27.039,0,0,1,18.235,56.17a19.3,19.3,0,0,0,14.153-3.958,9.569,9.569,0,0,1-8.93-6.64,9.6,9.6,0,0,0,4.316-.161,9.561,9.561,0,0,1-7.667-9.373c0-.04,0-.082,0-.12a9.52,9.52,0,0,0,4.328,1.194,9.574,9.574,0,0,1-2.958-12.763,27.143,27.143,0,0,0,19.7,9.991A9.566,9.566,0,0,1,57.47,25.619a19.081,19.081,0,0,0,6.073-2.32,9.6,9.6,0,0,1-4.209,5.29,19,19,0,0,0,5.49-1.5A19.229,19.229,0,0,1,60.059,32.026Z"/>
  </g>
</svg>
